<svg version="1.1" id="Layer_1" xmlns="http://www.w3.org/2000/svg" xmlns:xlink="http://www.w3.org/1999/xlink" x="0px" y="0px" viewBox="0 0 500 500" enable-background="new 0 0 500 500" xml:space="preserve">
<path fill="none" opacity="1.000000" stroke="none" 
	d="
M250.000000,501.000000 
	C168.000015,501.000000 86.500000,500.972473 5.000204,501.096039 
	C1.575989,501.101227 0.903036,500.423828 0.905301,497.000000 
	C1.013779,333.000092 1.013772,169.000122 0.905334,5.000240 
	C0.903070,1.576925 1.575814,0.903022 4.999883,0.905287 
	C168.999771,1.013774 332.999725,1.013761 496.999634,0.905353 
	C500.422668,0.903090 501.096985,1.575441 501.094727,4.999763 
	C500.986206,168.999649 500.986237,332.999603 501.094604,496.999512 
	C501.096893,500.422272 500.425476,501.101196 497.000275,501.096039 
	C414.833649,500.972656 332.666809,501.000000 250.000000,501.000000 
z"/>
<path fill="#030303" opacity="1.000000" stroke="none" 
	d="
M303.293274,161.811829 
	C330.912720,173.182053 353.072937,190.424316 367.648193,216.507645 
	C373.879486,227.658890 377.734985,239.609787 379.129333,252.342636 
	C379.306580,253.961456 379.847321,255.572968 380.425690,257.110352 
	C386.555237,273.403046 385.990784,289.476624 377.935028,304.875031 
	C370.187744,319.683746 357.165619,326.848114 340.783569,328.051208 
	C337.600952,328.284943 336.399231,328.508362 336.757996,332.361633 
	C337.562897,341.006683 331.626068,348.436890 323.209137,349.133728 
	C309.789093,350.244843 296.280853,351.283600 282.888916,348.904877 
	C273.598236,347.254608 264.028778,344.280396 262.058960,333.846497 
	C260.664398,326.459503 257.044403,326.868988 251.776352,326.936401 
	C236.450638,327.132629 221.120667,327.044250 205.792648,326.990601 
	C197.598373,326.961914 189.514557,326.031433 181.850204,322.919159 
	C170.613449,318.356201 165.223602,310.229156 165.560226,298.161194 
	C165.626144,295.798492 165.601913,294.575623 162.684357,294.457397 
	C138.579636,293.480530 124.694382,277.935638 119.528946,255.365204 
	C110.946091,217.862289 131.867264,191.956436 158.681824,181.589767 
	C167.005676,178.371719 174.213745,175.260971 180.426788,168.440796 
	C187.796356,160.351044 198.549774,157.577301 209.124451,155.684738 
	C240.862915,150.004456 272.321136,149.395325 303.293274,161.811829 
z"/>
<path fill="#FCFCFC" opacity="1.000000" stroke="none" 
	d="
M244.648529,172.901215 
	C248.285141,178.565948 246.479507,182.242538 240.384277,182.501022 
	C232.103897,182.852203 232.103897,182.852188 232.215622,192.667175 
	C232.648682,192.667175 233.161179,192.820343 233.507339,192.645035 
	C245.743713,186.449173 258.638336,185.512222 271.894653,187.991318 
	C274.837616,188.541687 275.740906,187.794220 275.559753,184.848602 
	C275.376648,181.870316 275.507690,178.856018 275.727234,175.874146 
	C275.971497,172.557175 277.817505,170.688004 281.268616,170.804474 
	C284.496613,170.913437 286.158752,172.857208 286.314606,175.890823 
	C286.527954,180.043991 286.465942,184.212112 286.489655,188.374023 
	C286.521637,193.980133 288.476562,196.027649 294.222260,196.146057 
	C298.884521,196.242126 303.550323,196.161011 308.214539,196.167984 
	C320.594788,196.186478 326.561066,201.979172 326.808319,214.432114 
	C326.947144,221.425720 326.936371,228.426041 326.803680,235.419754 
	C326.734314,239.075165 328.154480,240.351242 331.850464,240.240540 
	C339.839111,240.001266 347.840302,240.213745 355.835571,240.147247 
	C359.838623,240.113953 363.025940,241.285294 362.905334,245.840225 
	C362.793823,250.052261 359.691772,251.195084 355.934967,251.177689 
	C347.606171,251.139130 339.276123,251.241394 330.948395,251.138947 
	C324.397125,251.058380 322.339813,250.013046 317.204773,244.346420 
	C317.532166,253.553116 315.487518,261.540527 311.820496,269.835480 
	C323.551147,269.835480 334.767212,269.852631 345.983154,269.821686 
	C348.360870,269.815125 350.681274,269.792145 352.305420,271.952423 
	C354.449341,274.804077 353.414642,279.387207 349.855865,279.987762 
	C345.792786,280.673431 345.803925,282.915222 345.985504,285.855804 
	C346.067413,287.182953 346.120483,288.536591 345.955963,289.849304 
	C345.576721,292.875000 343.782104,294.770599 340.748596,294.918396 
	C337.662445,295.068756 335.852417,293.202118 335.150879,290.270966 
	C334.998291,289.633331 335.033478,288.948395 335.002380,288.284332 
	C334.653564,280.836609 334.649048,281.013397 327.427979,280.785248 
	C320.642731,280.570892 313.778442,281.864716 307.074646,279.861572 
	C305.305908,279.333099 304.824554,280.898590 304.005432,281.820984 
	C300.563568,285.696869 296.788025,289.180756 292.510223,292.131226 
	C291.608124,292.753418 290.187958,293.057068 290.096558,294.456879 
	C289.711182,300.358032 285.545715,300.442352 281.149963,300.530396 
	C270.540527,300.742859 260.015045,303.540497 249.329865,301.547180 
	C247.515198,301.208618 247.533157,302.542084 247.510559,303.712402 
	C247.459137,306.376465 247.587570,309.050049 247.409241,311.704071 
	C247.178802,315.133331 244.903488,316.915863 241.748642,316.708801 
	C238.887497,316.520966 236.854324,314.714722 236.848633,311.443359 
	C236.848343,311.276825 236.843781,311.110229 236.837387,310.943787 
	C236.710770,307.647339 237.856354,303.101562 236.146072,301.359192 
	C233.817764,298.987183 229.210098,300.690186 225.586884,300.529572 
	C222.427872,300.389526 219.249939,300.631042 216.095490,300.446075 
	C212.746841,300.249756 210.204056,298.684052 210.237274,294.977722 
	C210.270065,291.316559 212.727219,289.747925 216.130051,289.538330 
	C217.913757,289.428467 219.709778,289.518951 222.947388,289.518951 
	C216.670395,284.022644 212.153885,278.669556 208.659805,272.515076 
	C208.386215,272.033203 207.608215,271.693146 207.005478,271.564545 
	C198.650162,269.781921 188.286484,277.132202 186.984207,285.730011 
	C186.909561,286.222900 186.896912,286.725006 186.850876,287.222412 
	C186.226929,293.965393 184.499954,296.368835 180.547562,295.996490 
	C176.670212,295.631256 175.398041,292.874756 175.960968,286.058228 
	C177.020645,273.226685 185.042374,264.558319 199.114517,261.729553 
	C203.040909,260.940277 203.778381,259.821564 202.907059,255.839432 
	C200.792419,246.174973 202.226776,236.263031 201.846863,226.462585 
	C201.659973,221.641357 201.818558,216.796661 201.417313,211.996292 
	C200.866928,205.411392 199.167313,203.932556 192.624725,203.858765 
	C184.963043,203.772324 177.298309,203.751526 169.637527,203.871078 
	C165.547745,203.934891 162.499466,202.683670 162.617065,198.162445 
	C162.728180,193.889908 165.804886,192.903107 169.610413,192.964935 
	C176.937973,193.084000 184.268845,192.997055 191.598343,193.000198 
	C204.540665,193.005753 209.674316,197.091888 212.483231,209.957001 
	C217.052048,205.128830 221.339233,200.301788 227.568466,196.227692 
	C221.887115,195.241562 221.356110,191.612030 221.460068,187.364670 
	C221.631226,180.372498 221.522659,173.373108 221.504303,166.376816 
	C221.495056,162.850143 223.123550,160.326141 226.659592,160.295883 
	C230.363220,160.264175 232.661636,162.686142 232.085999,166.490936 
	C231.305573,171.649277 233.955032,172.202988 238.016602,171.899002 
	C240.100784,171.743027 242.359146,171.286224 244.648529,172.901215 
z"/>
<path fill="#F9F9F9" opacity="1.000000" stroke="none" 
	d="
M133.838806,238.164917 
	C132.938110,232.446686 134.602539,230.227020 139.783829,230.188736 
	C151.771088,230.100143 163.759506,230.180252 175.747345,230.148544 
	C179.483887,230.138657 182.036652,231.720383 182.064575,235.582397 
	C182.092453,239.434311 179.640823,241.121582 175.843979,241.020370 
	C173.015503,240.944946 170.153015,241.266556 167.360413,240.941315 
	C163.654419,240.509659 162.718933,242.069427 163.126450,245.422195 
	C163.365646,247.389999 163.189880,249.413193 163.140793,251.410004 
	C163.059616,254.711838 160.922348,256.278931 158.028152,256.399567 
	C155.033646,256.524414 152.937515,254.797623 152.613846,251.667831 
	C152.375214,249.360138 152.274536,246.984329 152.547180,244.690567 
	C152.932571,241.448456 151.581757,240.704941 148.632462,240.950989 
	C145.656204,241.199280 142.638794,240.906921 139.647446,241.036667 
	C137.284271,241.139160 135.415207,240.433502 133.838806,238.164917 
z"/>
<path fill="#FCFCFC" opacity="1.000000" stroke="none" 
	d="
M318.320251,306.356873 
	C318.430298,308.295044 318.544952,309.797638 318.472687,311.291168 
	C318.330658,314.226654 318.171417,316.694214 322.449921,316.931519 
	C325.240479,317.086304 326.445190,319.665283 326.139832,322.530975 
	C325.827209,325.464600 324.059387,327.095276 321.187653,327.116852 
	C310.357391,327.198120 299.526123,327.165558 288.695282,327.147980 
	C285.244324,327.142365 283.323944,325.121033 283.269501,321.909576 
	C283.213989,318.633026 285.257812,316.643829 288.616943,316.566681 
	C293.779755,316.448120 298.950409,316.401672 304.110687,316.558258 
	C306.692688,316.636627 307.791412,315.856140 307.545105,313.177521 
	C307.362823,311.194885 307.498718,309.181549 307.518494,307.182159 
	C307.549622,304.036163 308.650452,301.497864 312.070923,301.040894 
	C315.607239,300.568512 317.802765,302.242676 318.320251,306.356873 
z"/>
<path fill="#F5F5F5" opacity="1.000000" stroke="none" 
	d="
M367.335388,312.501282 
	C360.461304,316.146729 353.514923,314.620728 346.722900,313.786835 
	C344.499939,313.513885 343.627258,310.906982 343.903839,308.540131 
	C344.209442,305.924744 345.781403,304.076599 348.373749,303.959137 
	C353.516998,303.726013 358.697479,303.608795 363.825531,303.969879 
	C367.877258,304.255127 369.042542,307.248535 367.335388,312.501282 
z"/>
<path fill="#F7F7F7" opacity="1.000000" stroke="none" 
	d="
M318.853821,188.179565 
	C315.231812,188.176086 312.084198,188.223450 308.939056,188.154785 
	C305.819427,188.086700 303.968170,186.323990 303.647888,183.328918 
	C303.321716,180.278732 304.906982,178.078629 307.911987,177.574280 
	C312.985840,176.722672 318.144196,176.897827 323.237122,177.448959 
	C326.449890,177.796631 328.361420,179.868042 328.014343,183.250229 
	C327.677948,186.528564 325.656677,188.204498 322.310211,188.178299 
	C321.316620,188.170517 320.322906,188.178696 318.853821,188.179565 
z"/>
<path fill="#090A0A" opacity="1.000000" stroke="none" 
	d="
M262.653259,235.623474 
	C261.683380,233.583893 261.787079,232.029129 263.582153,231.024261 
	C265.042938,230.206528 266.008209,231.141449 267.095703,232.010254 
	C270.144989,234.446426 271.812439,233.101608 272.840057,229.838470 
	C274.940430,223.168793 274.981110,223.166656 281.749146,225.010880 
	C286.554413,226.320236 291.315674,227.809601 296.159851,228.949707 
	C298.641815,229.533844 299.497650,230.432327 298.718597,233.038788 
	C296.911865,239.083649 295.236389,245.173126 293.721924,251.297485 
	C293.045868,254.031357 291.744202,254.779755 289.190521,253.794800 
	C288.110870,253.378387 286.940308,253.203873 285.841064,252.830963 
	C282.358185,251.649414 280.624634,252.857239 281.061951,256.527313 
	C281.279114,258.349915 281.398590,259.869598 279.302582,260.526611 
	C278.039490,260.922607 276.954956,260.385803 276.218262,259.458740 
	C275.072479,258.016815 275.748932,256.855621 276.809937,255.514771 
	C278.996735,252.751099 278.583954,250.617264 274.799316,249.781799 
	C273.665802,249.531601 272.572601,249.085541 271.433990,248.874146 
	C268.687317,248.364182 267.135468,247.300751 268.831696,244.262283 
	C269.222504,243.562225 269.244415,242.660065 269.458313,241.856827 
	C270.781616,236.887360 270.107452,236.095901 264.864319,236.339066 
	C264.240540,236.367996 263.601410,236.066681 262.653259,235.623474 
z"/>
<path fill="#080909" opacity="1.000000" stroke="none" 
	d="
M248.428741,245.563446 
	C248.389877,246.382095 248.352997,246.779297 248.884109,247.579285 
	C248.430725,248.974121 248.608261,250.196762 247.956070,251.232147 
	C246.049103,254.259476 245.138535,257.000854 249.794418,258.550720 
	C251.510071,259.121826 252.079544,260.862946 251.799988,263.053284 
	C251.592712,263.618561 251.474518,263.832031 251.073257,264.280792 
	C248.990295,265.313904 247.451920,264.832489 245.817932,263.324768 
	C242.375778,260.336670 241.162827,263.067657 239.599701,265.485291 
	C239.297867,266.182800 239.114914,266.577515 238.495560,267.459656 
	C236.700882,268.171387 235.531967,268.858521 233.944839,267.865234 
	C228.350861,264.364258 222.635635,261.044586 216.849579,257.869049 
	C214.590607,256.629303 214.791885,255.522888 215.945435,253.628204 
	C219.119980,248.414047 222.259979,243.167236 225.117554,237.776382 
	C226.629120,234.924835 228.193344,234.239639 231.111725,236.499054 
	C231.447510,236.452164 231.409149,236.221619 231.708817,235.901352 
	C232.260986,235.899658 232.475159,235.987671 232.977859,236.262543 
	C235.542419,238.018311 237.062164,237.753891 238.145462,234.924484 
	C238.988632,232.722260 240.554260,230.377502 243.316681,232.063324 
	C245.800369,233.579071 245.272568,235.954102 243.321259,238.271133 
	C241.056122,242.085190 244.249283,242.824524 246.479263,244.376419 
	C247.180511,244.691528 247.573776,244.889572 248.428741,245.563446 
z"/>
<path fill="#0C0D0D" opacity="1.000000" stroke="none" 
	d="
M249.520050,249.162109 
	C253.374359,247.908203 255.433319,250.764053 257.814514,252.355377 
	C259.292175,253.342896 257.962494,254.555832 256.674744,255.311890 
	C254.656464,256.496796 254.103043,258.304199 255.067123,260.437195 
	C255.995285,262.490784 257.662018,263.349792 259.915680,263.109314 
	C262.410492,262.843140 263.227631,261.298370 263.259155,258.998566 
	C263.297699,256.185211 264.643097,256.166046 266.828217,257.223633 
	C273.147858,260.282318 273.177551,260.224701 269.540710,266.472656 
	C266.869232,271.062134 264.193787,275.649261 261.519806,280.237274 
	C260.702179,281.640228 260.173035,283.221161 257.895172,281.833649 
	C251.659683,278.035461 245.307358,274.429169 239.007645,270.736084 
	C238.176514,270.248871 237.938446,269.531433 238.222382,268.294800 
	C238.073135,267.953583 238.040573,268.029846 237.999252,268.026306 
	C238.283203,267.692841 238.511856,267.304352 238.798950,266.550415 
	C240.556168,264.403198 240.532913,260.272461 245.013351,262.302124 
	C246.426743,264.894470 248.143906,265.639679 250.818207,264.146362 
	C251.070389,263.941833 251.032257,264.031097 250.987274,264.049316 
	C252.436432,261.977448 252.454163,260.009918 250.228226,258.461273 
	C245.016479,254.835312 244.996109,254.864578 249.520050,249.162109 
z"/>
<path fill="#0C0C0C" opacity="1.000000" stroke="none" 
	d="
M231.248627,235.349274 
	C228.793304,233.896942 228.094040,232.563324 229.671844,230.074463 
	C233.130127,224.619324 236.354980,219.007172 239.455078,213.338745 
	C240.606476,211.233429 241.511154,210.929825 243.577026,212.204666 
	C249.214905,215.683823 255.013504,218.901642 260.697968,222.307190 
	C261.557678,222.822235 263.452850,223.156586 262.632568,224.632645 
	C261.289398,227.049591 260.535583,230.054337 257.985168,231.496582 
	C256.771698,232.182739 256.362671,230.327805 255.626892,229.525162 
	C252.935913,226.589691 250.753586,227.126022 247.842743,231.657318 
	C247.562057,232.500946 247.291336,232.902588 246.523834,233.283905 
	C241.018982,230.407867 240.999725,230.396790 237.760605,236.023239 
	C236.171127,238.784210 234.348923,237.689926 232.221313,236.196991 
	C231.965210,235.944046 232.030914,235.953995 232.039658,235.986053 
	C231.870743,235.869370 231.693100,235.720657 231.248627,235.349274 
z"/>
<path fill="#090909" opacity="1.000000" stroke="none" 
	d="
M310.462708,216.661560 
	C308.498108,213.575409 306.745026,210.796692 304.989166,208.013519 
	C312.218811,205.257904 315.765350,207.404282 315.982971,214.771790 
	C316.107330,218.981430 316.005493,223.197739 315.304321,227.544785 
	C313.760956,224.019516 312.217560,220.494247 310.462708,216.661560 
z"/>
<path fill="#191A1A" opacity="1.000000" stroke="none" 
	d="
M245.831726,233.198364 
	C246.501740,232.736359 246.897690,232.482544 247.505676,232.123840 
	C248.002762,234.576874 249.114410,236.354034 251.966003,236.404938 
	C255.016006,236.459381 255.344345,237.990204 253.749084,240.081940 
	C252.348022,241.919006 252.296188,244.875259 249.148163,245.762817 
	C248.898361,246.023422 248.966736,245.988556 248.971100,246.026611 
	C248.680099,245.723755 248.313599,245.490906 247.580887,245.212204 
	C245.388046,243.247040 241.085022,243.453934 242.431763,238.807892 
	C244.754639,237.475616 244.882935,235.285797 245.831726,233.198364 
z"/>
<path fill="#D7D7D7" opacity="1.000000" stroke="none" 
	d="
M249.631058,248.811920 
	C249.302628,249.956131 248.884918,251.029037 248.270874,251.974426 
	C246.477859,254.735001 245.055084,256.731049 250.272110,257.538513 
	C253.585083,258.051270 254.248932,261.089386 251.323563,263.997681 
	C251.090332,261.513641 251.950745,258.887329 247.522308,258.886108 
	C244.502563,258.885284 244.113739,256.272461 245.248383,253.822052 
	C246.129349,251.919464 247.332001,250.165817 248.679474,248.144226 
	C249.114655,248.198410 249.276245,248.445038 249.631058,248.811920 
z"/>
<path fill="#E1E1E1" opacity="1.000000" stroke="none" 
	d="
M231.038193,235.538177 
	C231.307037,235.230743 231.632248,235.334885 232.002930,235.728561 
	C232.048401,236.018097 231.909882,236.480698 231.697876,236.581696 
	C231.355423,236.438385 231.224991,236.194061 231.038193,235.538177 
z"/>
<path fill="#E1E1E1" opacity="1.000000" stroke="none" 
	d="
M245.858887,232.752914 
	C246.635193,235.456070 246.206451,237.531845 243.398270,238.902710 
	C242.563126,239.250259 242.157761,239.138397 241.919113,238.385574 
	C242.894791,236.719376 245.714340,236.365295 244.135223,233.829468 
	C243.504745,232.817017 242.704361,231.861526 241.362549,232.165878 
	C239.321671,232.628815 239.362076,234.293060 239.041016,236.006790 
	C238.309494,239.911530 235.748566,240.059891 231.662201,236.271942 
	C235.012390,236.972672 237.135437,237.944473 238.185196,232.916031 
	C238.994064,229.041504 242.910980,229.894394 245.858887,232.752914 
z"/>
<path fill="#D1D1D1" opacity="1.000000" stroke="none" 
	d="
M241.673279,238.205872 
	C242.114349,238.369431 242.308395,238.629440 242.823547,238.920990 
	C241.848297,243.284180 246.330719,242.464584 247.977478,244.620453 
	C248.065048,245.244766 247.856567,245.473221 247.286011,245.679596 
	C244.378555,243.916565 239.226944,243.948380 241.673279,238.205872 
z"/>
<path fill="#D1D2D2" opacity="1.000000" stroke="none" 
	d="
M245.165482,263.093201 
	C240.467087,260.497345 241.522690,265.756287 239.379974,266.978088 
	C238.893387,267.012787 238.698318,266.879181 238.384674,266.411377 
	C240.095108,263.506866 240.270782,258.314606 245.785278,261.723145 
	C245.852325,262.413147 245.688141,262.729675 245.165482,263.093201 
z"/>
<path fill="#DCDCDC" opacity="1.000000" stroke="none" 
	d="
M244.974640,263.539368 
	C245.086945,262.893738 245.266022,262.597107 245.672302,262.169434 
	C246.977371,263.587250 248.223083,264.731995 250.686859,263.904663 
	C249.028397,267.566772 247.028137,266.489227 244.974640,263.539368 
z"/>
<path fill="#FCFCFC" opacity="1.000000" stroke="none" 
	d="
M247.399445,245.993896 
	C247.207748,245.491501 247.432037,245.271561 247.945419,245.016968 
	C248.541016,245.098480 248.926361,245.295029 249.143570,245.778122 
	C248.616684,246.619370 248.204147,246.667053 247.399445,245.993896 
z"/>
<path fill="#FCFCFC" opacity="1.000000" stroke="none" 
	d="
M238.058197,266.420807 
	C238.532990,266.241394 238.731873,266.465851 238.975616,266.948456 
	C238.908493,267.538422 238.728531,267.930511 238.253250,268.172668 
	C237.393524,267.648529 237.353806,267.229431 238.058197,266.420807 
z"/>
</svg>